<svg width="640" height="384" viewBox="0 0 640 384" fill="none" xmlns="http://www.w3.org/2000/svg">
<rect width="640" height="384" rx="192" fill="url(#paint0_linear_29_36)"/>
<path d="M448 0C554 0 640 86 640 192C640 234.969 625.867 274.65 602 306.649V264.719C602 244.896 585.923 228.813 566.107 228.812H542.179C522.363 228.812 506.286 244.896 506.286 264.719V374.981C498.512 377.457 490.525 379.454 482.357 380.931V216.844C482.357 197.021 466.28 180.938 446.464 180.938H422.536C402.72 180.938 386.643 197.021 386.643 216.844V384H362.714V360.469C362.714 340.646 346.637 324.562 326.821 324.562H302.893C283.077 324.563 267 340.646 267 360.469V384H192C86 384 0 298 0 192C0 86 86 0 192 0H448ZM192 112C178.7 112 168 122.7 168 136V168H136C122.7 168 112 178.7 112 192C112 205.3 122.7 216 136 216H168V248C168 261.3 178.7 272 192 272C205.3 272 216 261.3 216 248V216H248C261.3 216 272 205.3 272 192C272 178.7 261.3 168 248 168H216V136C216 122.7 205.3 112 192 112ZM496 104C485.391 104 475.217 108.214 467.716 115.716C460.214 123.217 456 133.391 456 144C456 154.609 460.214 164.783 467.716 172.284C475.217 179.786 485.391 184 496 184C506.609 184 516.783 179.786 524.284 172.284C531.786 164.783 536 154.609 536 144C536 133.391 531.786 123.217 524.284 115.716C516.783 108.214 506.609 104 496 104Z" fill="white"/>
<defs>
<linearGradient id="paint0_linear_29_36" x1="6.74578" y1="-2.10094e-06" x2="633.254" y2="384" gradientUnits="userSpaceOnUse">
<stop stop-color="#0D1F2D"/>
<stop offset="1" stop-color="#1A3D59"/>
</linearGradient>
</defs>
</svg>
